{
  "accessors": [
    {
      "bufferView": 1,
      "componentType": 5126,
      "count": 180,
      "max": [
        0.13219000399112701,
        0.11891999840736389,
        -0.035020001232624054
      ],
      "min": [
        -0.13219000399112701,
        -0.15873000025749207,
        -0.057039998471736908
      ],
      "type": "VEC3"
    },
    {
      "bufferView": 1,
      "byteOffset": 2160,
      "componentType": 5126,
      "count": 180,
      "max": [
        0.88161385059356689,
        0.92733997106552124,
        -0.26429593563079834
      ],
      "min": [
        -0.8816027045249939,
        -0.96444165706634521,
        -0.99563837051391602
      ],
      "type": "VEC3"
    },
    {
      "bufferView": 0,
      "componentType": 5125,
      "count": 720,
      "max": [
        179
      ],
      "min": [
        0
      ],
      "type": "SCALAR"
    },
    {
      "bufferView": 1,
      "byteOffset": 4320,
      "componentType": 5126,
      "count": 1387,
      "max": [
        0.23344999551773071,
        0.25382000207901001,
        0.090219996869564056
      ],
      "min": [
        -0.23344999551773071,
        -0.27788001298904419,
        -0.057199999690055847
      ],
      "type": "VEC3"
    },
    {
      "bufferView": 1,
      "byteOffset": 20964,
      "componentType": 5126,
      "count": 1387,
      "max": [
        0.92103809118270874,
        0.94548416137695312,
        0.049441345036029816
      ],
      "min": [
        -0.92103809118270874,
        -0.99995332956314087,
        -0.99995869398117065
      ],
      "type": "VEC3"
    },
    {
      "bufferView": 0,
      "byteOffset": 2880,
      "componentType": 5125,
      "count": 7776,
      "max": [
        1386
      ],
      "min": [
        0
      ],
      "type": "SCALAR"
    }
  ],
  "asset": {
    "extras": {
      "author": "chroma3d (https://sketchfab.com/vendol21)",
      "license": "CC-BY-4.0 (http://creativecommons.org/licenses/by/4.0/)",
      "source": "https://sketchfab.com/3d-models/low-poly-cartoon-cowboy-hat-free-a75289462fb743d1b00fed586f101b7c",
      "title": "Low Poly Cartoon Cowboy Hat Free"
    },
    "generator": "Sketchfab-6.29.0",
    "version": "2.0"
  },
  "bufferViews": [
    {
      "buffer": 0,
      "byteLength": 33984,
      "byteOffset": 0,
      "name": "floatBufferViews",
      "target": 34963
    },
    {
      "buffer": 0,
      "byteLength": 37608,
      "byteOffset": 33984,
      "byteStride": 12,
      "name": "floatBufferViews",
      "target": 34962
    }
  ],
  "buffers": [
    {
      "byteLength": 71592,
      "uri": "scene.bin"
    }
  ],
  "materials": [
    {
      "doubleSided": true,
      "emissiveFactor": [
        0,
        0,
        0
      ],
      "name": "HatFrame",
      "pbrMetallicRoughness": {
        "baseColorFactor": [
          0.29378598928451538,
          0.22736400365829468,
          0.15281899273395538,
          1
        ],
        "metallicFactor": 0,
        "roughnessFactor": 0.59999999999999998
      }
    },
    {
      "doubleSided": true,
      "emissiveFactor": [
        0,
        0,
        0
      ],
      "name": "material",
      "pbrMetallicRoughness": {
        "baseColorFactor": [
          0.018848570063710213,
          0.0092186657711863518,
          0.004080719780176878,
          1
        ],
        "metallicFactor": 0,
        "roughnessFactor": 0.59999999999999998
      }
    }
  ],
  "meshes": [
    {
      "name": "CowboyHat_0",
      "primitives": [
        {
          "attributes": {
            "NORMAL": 1,
            "POSITION": 0
          },
          "indices": 2,
          "material": 0,
          "mode": 4
        }
      ]
    },
    {
      "name": "CowboyHat_1",
      "primitives": [
        {
          "attributes": {
            "NORMAL": 4,
            "POSITION": 3
          },
          "indices": 5,
          "material": 1,
          "mode": 4
        }
      ]
    }
  ],
  "nodes": [
    {
      "children": [
        1
      ],
      "name": "RootNode (gltf orientation matrix)",
      "rotation": [
        -0.70710678118654746,
        -0,
        -0,
        0.70710678118654757
      ]
    },
    {
      "children": [
        2
      ],
      "name": "RootNode (model correction matrix)"
    },
    {
      "children": [
        3
      ],
      "name": "Root"
    },
    {
      "children": [
        4,
        5
      ],
      "name": "CowboyHat"
    },
    {
      "mesh": 0,
      "name": "CowboyHat_0"
    },
    {
      "mesh": 1,
      "name": "CowboyHat_1"
    }
  ],
  "scene": 0,
  "scenes": [
    {
      "name": "OSG_Scene",
      "nodes": [
        0
      ]
    }
  ]
}

